<svg width="12" height="37" viewBox="0 0 12 37" fill="none" xmlns="http://www.w3.org/2000/svg">
<path d="M4.77295 35.75C4.77295 36.1642 5.10874 36.5 5.52295 36.5C5.93716 36.5 6.27295 36.1642 6.27295 35.75L4.77295 35.75ZM6.05328 0.219669C5.76039 -0.0732231 5.28551 -0.0732231 4.99262 0.219669L0.21965 4.99264C-0.0732437 5.28553 -0.0732437 5.76041 0.21965 6.0533C0.512543 6.34619 0.987417 6.34619 1.28031 6.0533L5.52295 1.81066L9.76559 6.0533C10.0585 6.34619 10.5334 6.34619 10.8263 6.0533C11.1191 5.76041 11.1191 5.28553 10.8263 4.99264L6.05328 0.219669ZM6.27295 35.75L6.27295 0.75L4.77295 0.75L4.77295 35.75L6.27295 35.75Z" fill="url(#paint0_linear_1_290)"/>
<defs>
<linearGradient id="paint0_linear_1_290" x1="6.17702" y1="0.749998" x2="17.7987" y2="7.54249" gradientUnits="userSpaceOnUse">
<stop stop-color="#237249"/>
<stop offset="1" stop-color="#35C66B"/>
</linearGradient>
</defs>
</svg>
