<svg width="178" height="178" viewBox="0 0 178 178" fill="none" xmlns="http://www.w3.org/2000/svg">
<g filter="url(#filter0_d_1_102)">
<path d="M32.5384 58.3143C27.9527 52.5123 31.5938 43.9345 38.9529 43.2027C44.4118 42.6599 48.2345 37.5585 47.2227 32.1669C45.8586 24.8984 53.0689 18.9952 59.9251 21.7672C65.0109 23.8234 70.7665 21.0829 72.3762 15.8386C74.5462 8.7687 83.674 6.89249 88.4566 12.5332C92.0043 16.7175 98.3743 16.9656 102.237 13.07C107.444 7.81842 116.398 10.399 118.011 17.6162C119.208 22.9699 124.733 26.1499 129.963 24.4955C137.015 22.2652 143.744 28.7114 141.818 35.8517C140.39 41.1484 143.805 46.5317 149.205 47.4975C156.485 48.7995 159.447 57.6345 154.424 63.0622C150.698 67.0884 151.22 73.4418 155.552 76.8065C161.393 81.3425 159.911 90.5424 152.941 93.0141C147.77 94.8475 145.279 100.715 147.552 105.708C150.616 112.439 145.028 119.896 137.708 118.846C132.278 118.066 127.345 122.105 127.037 127.582C126.622 134.966 118.209 138.972 112.215 134.639C107.769 131.426 101.525 132.709 98.707 137.416C94.9081 143.761 85.5966 143.398 82.3028 136.777C79.8595 131.865 73.7341 130.1 69.0516 132.958C62.7391 136.811 54.6628 132.162 54.8234 124.769C54.9426 119.284 50.3391 114.874 44.8648 115.229C37.4849 115.707 32.4938 107.838 36.0721 101.366C38.7264 96.5648 36.6996 90.5209 31.6875 88.2908C24.9307 85.2844 24.1684 75.9971 30.3445 71.9292C34.9259 68.9117 35.94 62.6181 32.5384 58.3143Z" fill="url(#paint0_linear_1_102)"/>
</g>
<defs>
<filter id="filter0_d_1_102" x="2.38419e-07" y="9.53674e-07" width="177.62" height="177.324" filterUnits="userSpaceOnUse" color-interpolation-filters="sRGB">
<feFlood flood-opacity="0" result="BackgroundImageFix"/>
<feColorMatrix in="SourceAlpha" type="matrix" values="0 0 0 0 0 0 0 0 0 0 0 0 0 0 0 0 0 0 127 0" result="hardAlpha"/>
<feOffset dx="-3.84326" dy="13.0671"/>
<feGaussianBlur stdDeviation="11.1454"/>
<feComposite in2="hardAlpha" operator="out"/>
<feColorMatrix type="matrix" values="0 0 0 0 0.0775104 0 0 0 0 0.241623 0 0 0 0 0.157958 0 0 0 0.46 0"/>
<feBlend mode="normal" in2="BackgroundImageFix" result="effect1_dropShadow_1_102"/>
<feBlend mode="normal" in="SourceGraphic" in2="effect1_dropShadow_1_102" result="shape"/>
</filter>
<linearGradient id="paint0_linear_1_102" x1="144.931" y1="13.3238" x2="104.383" y2="123.523" gradientUnits="userSpaceOnUse">
<stop stop-color="#237249"/>
<stop offset="1" stop-color="#35C66B"/>
</linearGradient>
</defs>
</svg>
